<svg id="Icon_Name" data-name="Icon Name" xmlns="http://www.w3.org/2000/svg" viewBox="0 0 24 24"><defs><style>.cls-1{fill:#f1893c;}.cls-2{fill:#f18c41;}.cls-3{fill:#fff5ee;}.cls-4{fill:#fdecde;}.cls-5{fill:#f5a96d;}.cls-6{fill:#cdc4ba;}.cls-7{fill:#514639;}.cls-8{fill:#f08a3e;}.cls-9{fill:#52473a;}.cls-10{fill:#908a7c;}.cls-11{fill:#ccc4ba;}.cls-12{fill:#53493b;}.cls-13{fill:#928b7e;}.cls-14{fill:#8f8a7d;}.cls-15{fill:#564b3e;}.cls-16{fill:#4d4c48;}.cls-17{fill:#8f897c;}.cls-18{fill:#52483c;}.cls-19{fill:#8a857a;}.cls-20{fill:#52483a;}.cls-21{fill:#594d3f;}.cls-22{fill:#564a3d;}.cls-23{fill:#90897c;}.cls-24{fill:#ccc3b8;}.cls-25{fill:#544c40;}.cls-26{fill:#8d877b;}.cls-27{fill:#c6beb3;}.cls-28{fill:#5e5041;}.cls-29{fill:#c5bdb3;}.cls-30{fill:#554d42;}.cls-31{fill:#beb8b0;}.cls-32{fill:#8a8579;}.cls-33{fill:#908a7d;}.cls-34{fill:#c3bcb4;}.cls-35{fill:#bab3a9;}.cls-36{fill:#8c867a;}.cls-37{fill:#8a8479;}.cls-38{fill:#8a8478;}.cls-39{fill:#554a3e;}.cls-40{fill:#8f7963;}.cls-41{fill:#878072;}.cls-42{fill:#584c3f;}.cls-43{fill:#796a57;}.cls-44{fill:#c3baaf;}.cls-45{fill:#aea599;}.cls-46{fill:#797062;}.cls-47{fill:#706558;}.cls-48{fill:#b3aba1;}.cls-49{fill:#5a4f41;}.cls-50{fill:#8c867b;}.cls-51{fill:#817d73;}.cls-52{fill:#645b4e;}.cls-53{fill:#60574a;}.cls-54{fill:#80786c;}.cls-55{fill:#757873;}.cls-56{fill:#6c5e4f;}.cls-57{fill:#595146;}.cls-58{fill:#8b867b;}.cls-59{fill:#cbc2b7;}.cls-60{fill:#51473a;}.cls-61{fill:#7c7365;}.cls-62{fill:#6f6557;}.cls-63{fill:#8e8170;}.cls-64{fill:#ba885f;}.cls-65{fill:#948e82;}.cls-66{fill:#c5bdb2;}.cls-67{fill:#bba38b;}.cls-68{fill:#7e776a;}.cls-69{fill:#b2aa9f;}.cls-70{fill:#bcae9f;}.cls-71{fill:#bc895f;}.cls-72{fill:#8c877c;}.cls-73{fill:#bc895e;}.cls-74{fill:#ada092;}.cls-75{fill:#555047;}.cls-76{fill:#b4aa9f;}.cls-77{fill:#ccb49f;}.cls-78{fill:#5a4d3f;}.cls-79{fill:#8d8478;}.cls-80{fill:#8a867c;}.cls-81{fill:#888d8e;}.cls-82{fill:#d7ae8a;}.cls-83{fill:#b2afaa;}.cls-84{fill:#958e80;}.cls-85{fill:#51483c;}.cls-86{fill:#916644;}.cls-87{fill:#bdb6aa;}.cls-88{fill:#bcb4a9;}.cls-89{fill:#939699;}.cls-90{fill:#8f877b;}.cls-91{fill:#bfb6ab;}.cls-92{fill:#b9b1a5;}.cls-93{fill:#c8c0b6;}.cls-94{fill:#575a58;}.cls-95{fill:#b98860;}.cls-96{fill:#a3a2a0;}.cls-97{fill:#645a4c;}.cls-98{fill:#a08f7c;}.cls-99{fill:#ba895f;}.cls-100{fill:#8e8577;}.cls-101{fill:#716859;}.cls-102{fill:#595147;}.cls-103{fill:#8a8375;}.cls-104{fill:#828078;}.cls-105{fill:#908778;}.cls-106{fill:#a19b91;}.cls-107{fill:#807768;}.cls-108{fill:#b7a493;}.cls-109{fill:#7e7566;}.cls-110{fill:#717169;}.cls-111{fill:#747875;}.cls-112{fill:#776f64;}.cls-113{fill:#c4bdb5;}.cls-114{fill:#766d5f;}.cls-115{fill:#546367;}.cls-116{fill:#695a48;}.cls-117{fill:#c0ac97;}.cls-118{fill:#625447;}.cls-119{fill:#b3b0ab;}.cls-120{fill:#d6b69a;}.cls-121{fill:#918678;}.cls-122{fill:#bbb4aa;}.cls-123{fill:#cec5ba;}.cls-124{fill:#c1b9ad;}.cls-125{fill:#455255;}.cls-126{fill:#bdb4aa;}.cls-127{fill:#b1aa9f;}.cls-128{fill:#615649;}.cls-129{fill:#7f7f78;}.cls-130{fill:#979592;}.cls-131{fill:#73563e;}.cls-132{fill:#d68c52;}.cls-133{fill:#56493a;}.cls-134{fill:#755b44;}.cls-135{fill:#5d554a;}.cls-136{fill:#c4bdb4;}.cls-137{fill:#a9a295;}.cls-138{fill:#c7beb4;}.cls-139{fill:#736a5c;}.cls-140{fill:#b2aca0;}.cls-141{fill:#584f42;}.cls-142{fill:#acaaa7;}.cls-143{fill:#776f60;}.cls-144{fill:#6a5848;}.cls-145{fill:#a59b8e;}.cls-146{fill:#c3bab1;}.cls-147{fill:#b3aca0;}.cls-148{fill:#97908a;}.cls-149{fill:#5b5143;}.cls-150{fill:#847c6e;}.cls-151{fill:#63584a;}.cls-152{fill:#c0b8ad;}.cls-153{fill:#6a6052;}.cls-154{fill:#b8b2ac;}.cls-155{fill:#b8b1a8;}.cls-156{fill:#a6a5a3;}.cls-157{fill:#778085;}.cls-158{fill:#796e61;}.cls-159{fill:#afa89b;}.cls-160{fill:#9d9c97;}.cls-161{fill:#9c9d9d;}.cls-162{fill:#3e555e;}.cls-163{fill:#5d564b;}.cls-164{fill:#6d6456;}.cls-165{fill:#5a4f42;}.cls-166{fill:#574c3e;}.cls-167{fill:#898e91;}.cls-168{fill:#b7b0a8;}.cls-169{fill:#5d5042;}.cls-170{fill:#9a9996;}.cls-171{fill:#e49e68;}.cls-172{fill:#8e887b;}.cls-173{fill:#d9b99d;}.cls-174{fill:#6b6054;}.cls-175{fill:#64594c;}.cls-176{fill:#8d877a;}.cls-177{fill:#776e5f;}.cls-178{fill:#72685a;}.cls-179{fill:#807567;}.cls-180{fill:#8d8679;}.cls-181{fill:#5c5244;}.cls-182{fill:#c6bfb6;}.cls-183{fill:#585853;}.cls-184{fill:#4f4a40;}.cls-185{fill:#4b4f4d;}.cls-186{fill:#3c555f;}.cls-187{fill:#8c8376;}.cls-188{fill:#5b5043;}.cls-189{fill:#6e7674;}.cls-190{fill:#716e64;}.cls-191{fill:#5a5043;}.cls-192{fill:#a19a8d;}.cls-193{fill:#a9a195;}.cls-194{fill:#c9c1b7;}.cls-195{fill:#cac1b7;}.cls-196{fill:#867f74;}.cls-197{fill:#656b6b;}.cls-198{fill:#a49c92;}.cls-199{fill:#818283;}.cls-200{fill:#beb6ac;}.cls-201{fill:#aaa399;}.cls-202{fill:#7f7567;}.cls-203{fill:#887f73;}.cls-204{fill:#5e5448;}.cls-205{fill:#564c40;}.cls-206{fill:#878378;}.cls-207{fill:#c4bcb2;}.cls-208{fill:#bfb7ac;}.cls-209{fill:#9f9a90;}.cls-210{fill:#525551;}.cls-211{fill:#8e877a;}.cls-212{fill:#495356;}.cls-213{fill:#6a6257;}.cls-214{fill:#6b6a67;}.cls-215{fill:#717e84;}.cls-216{fill:#898d8e;}.cls-217{fill:#707878;}.cls-218{fill:#bcb5ad;}.cls-219{fill:#4f646e;}.cls-220{fill:#62584c;}.cls-221{fill:#6a675e;}.cls-222{fill:#5c6a6f;}.cls-223{fill:#807e75;}.cls-224{fill:#888173;}.cls-225{fill:#6c6255;}.cls-226{fill:#868071;}.cls-227{fill:#514b43;}.cls-228{fill:#7d7e77;}.cls-229{fill:#798085;}.cls-230{fill:#d3beac;}.cls-231{fill:#6e675c;}.cls-232{fill:#6b6254;}.cls-233{fill:#cec5bb;}.cls-234{fill:#b2a79c;}.cls-235{fill:#b0a99e;}.cls-236{fill:#bdb8b1;}.cls-237{fill:#838077;}.cls-238{fill:#7c7e78;}.cls-239{fill:#989287;}.cls-240{fill:#5b5850;}.cls-241{fill:#514638;}.cls-242{fill:#aca59a;}.cls-243{fill:#b6aea3;}.cls-244{fill:#cbc2b8;}.cls-245{fill:#b5aca1;}.cls-246{fill:#667172;}.cls-247{fill:#736b5e;}.cls-248{fill:#a7a094;}.cls-249{fill:#575652;}.cls-250{fill:#878379;}.cls-251{fill:#70665a;}.cls-252{fill:#807869;}.cls-253{fill:#938a7e;}.cls-254{fill:#81796a;}.cls-255{fill:#a59c8e;}.cls-256{fill:#a1a1a0;}.cls-257{fill:#63594b;}.cls-258{fill:#91877d;}.cls-259{fill:#584d3f;}</style></defs><path class="cls-1" d="M9.29,6.35s-.07-.07,0-.12.07,0,.11,0c.06-.23,0-.49.16-.72.16.36.15.36.44.1.07-.06.11-.2.23-.16s.09.17.12.27,0,.14.08.19,0,.22.07.31c0-.12-.08-.25,0-.38a.31.31,0,0,0,.09-.07c.09-.08.16-.22.24,0,0,.09.16.08.21,0s.21-.17.3-.28a.14.14,0,0,1,.25,0c.06.1.11.21.16.31s.28.15.34.31h.05a.52.52,0,0,1,.39-.19c.1,0,.08-.1,0-.22,0,0,0,.13-.06.15a.22.22,0,0,1-.22,0,.17.17,0,0,1,0-.2c0-.06.07-.12.13-.12.29,0,.34-.26.5-.41s.11-.1.16,0,.21.18.18.35.06,0,.09,0,.24,0,.27.18-.05.2-.17.24-.05.12,0,.17A.64.64,0,0,0,14,6a1,1,0,0,1,.33-.3s0,0,.06,0a.81.81,0,0,0,.15.4c.11,0,.1-.16.18-.24.14.19.11.49.39.59a1.63,1.63,0,0,0,0-.44c0-.06,0-.18,0-.17s.2,0,.2.14.1.51.08.77a1.1,1.1,0,0,1-.12.31c-.07.23,0,.52-.21.71,0,0,0,.13,0,.19,0,2.47,0,4.94,0,7.41a2.9,2.9,0,0,1-2.34,2.91,3,3,0,0,1-3.32-1.7,2.81,2.81,0,0,1-.22-1.18V7.57a2.1,2.1,0,0,1,0-.5c0-.18,0-.36.06-.52.11,0,.05.12.14.18C9.3,6.61,9.41,6.44,9.29,6.35Z"/><path class="cls-2" d="M9.37,6.19s-.07,0-.11,0S9.2,6,9.05,6s0-.07,0-.1.05-.3.08-.45a.18.18,0,0,1,.16-.15c.11,0,.06.11.06.17a1.62,1.62,0,0,1,0,.44C9.28,6,9.24,6.13,9.37,6.19Z"/><path class="cls-3" d="M10.49,5.8c-.06.11,0,.21,0,.32a1.2,1.2,0,0,1,0,.2c-.06-.14-.18-.27-.09-.45Z"/><path class="cls-4" d="M9.29,6.35c.12.12.09.3.18.43s0,0,0,0a.09.09,0,0,1-.08,0c-.06-.07,0-.17-.06-.23A.18.18,0,0,0,9.29,6.35Z"/><path class="cls-5" d="M14.43,5.68h-.06V5.49C14.46,5.54,14.43,5.61,14.43,5.68Z"/><path class="cls-6" d="M11.91,9.29V8.65s.09-.09.14,0v0s-.13,0-.15-.08,0-.22,0-.32.11-.05.07-.12a.37.37,0,0,0,.16-.19.58.58,0,0,1,.26,0,.39.39,0,0,0,.28,0,1.13,1.13,0,0,1,.26,0c.07,0,.12.1.2.12a1.27,1.27,0,0,1,.07.61c-.05,0-.07-.05-.09-.08l0,0a.34.34,0,0,0-.2,0c-.08,0-.13.12-.23.05s0-.17,0-.25,0-.06-.06-.06-.05,0-.05.07,0,.25,0,.37a.13.13,0,0,1-.1,0,.3.3,0,0,0-.24.27.91.91,0,0,0,.37.43,3.29,3.29,0,0,1,0,1c-.09.07-.12,0-.18-.06a.39.39,0,0,0-.07-.16.09.09,0,0,1,0,0s0,0,0,0h-.06a.13.13,0,0,1,.07,0c0,.07.06.11.08.17a.36.36,0,0,0,0,.09s-.07,0-.05.1a.1.1,0,0,1,0,.09.11.11,0,0,1-.15,0,.38.38,0,0,1-.1-.12c0-.06,0-.12-.09-.14v-.39c0-.16.15-.28.18-.45a.5.5,0,0,0,0-.17s0-.08,0-.08A.2.2,0,0,1,11.91,9.29Z"/><path class="cls-7" d="M11.27,13l.09.6.07-.41.14-.12h0l.05,0c.06.08.19,0,.25.1l-.13,1.15c-.1,0-.2,0-.29,0a1.7,1.7,0,0,0-.45,0H11l-.05,0,0-.08a1.23,1.23,0,0,0,0-.27s0-.09,0-.13a.28.28,0,0,0,0-.09l0-.11a2.09,2.09,0,0,1,0-.25,1.5,1.5,0,0,0,.06-.29.19.19,0,0,1,.05-.1C11.13,13,11.2,13,11.27,13Z"/><path class="cls-8" d="M12.1,10.68c.06,0,.12,0,.16,0s.1-.09.16-.11,0-.2,0-.3c0-.25,0-.51,0-.76a.34.34,0,0,1-.06-.25.76.76,0,0,0,0-.15.2.2,0,0,1,0-.11l0-.13,0-.05V8.39c0-.08,0-.14.1-.14s.11.06.12.13,0,.18,0,.27a.3.3,0,0,1,0,.08v.18a.49.49,0,0,1,0,.12v1.23a.49.49,0,0,1,0,.12.22.22,0,0,1,0,.08.57.57,0,0,1,0,.13c0,.07.06.14,0,.21a.09.09,0,0,1-.06.06h-.06a1.6,1.6,0,0,1-.23,0c-.14,0-.28,0-.41,0l-.06,0s-.06,0-.06-.08A.14.14,0,0,1,12.1,10.68Z"/><path class="cls-7" d="M13.64,13.35v1.19a.58.58,0,0,1-.54,0V13.31A.72.72,0,0,1,13.64,13.35Z"/><path class="cls-7" d="M10.59,9.53a1.67,1.67,0,0,1,0-.63.37.37,0,0,1,.35-.08,1.44,1.44,0,0,1,.09.45c0,.19.06.37.08.55a2.26,2.26,0,0,1,0,.45.14.14,0,0,1-.09.08h-.07c-.12,0-.26.07-.38,0a2.62,2.62,0,0,1,0-.79h.06Z"/><path class="cls-9" d="M12.34,14.18v-.92l.08,0a.24.24,0,0,0,.06-.08c.06-.05.1-.12.16-.17.24,0,.32,0,.36.22h0s-.18,0-.09.12v.42c-.11.08-.26,0-.36.09s0,.25-.1.36A.07.07,0,0,1,12.34,14.18Z"/><path class="cls-6" d="M12.7,9.76V9.37a.5.5,0,0,1,.07-.08,1,1,0,0,1,.36-.16.15.15,0,0,1,.11,0v.77a.18.18,0,0,1-.24,0,.19.19,0,0,1-.07.15.08.08,0,0,1-.09,0A.65.65,0,0,0,12.7,9.76Z"/><path class="cls-10" d="M12.41,14.18l.08-.41c.12,0,.25,0,.36.05l0,.08a.11.11,0,0,1-.07,0c-.05,0-.14,0-.14.07s-.08.19,0,.28,0,.12.05.16.09,0,.13,0l0,0c0,.08-.06.15,0,.23s0,.13-.11.14a1.55,1.55,0,0,1-.43,0v-.47C12.37,14.31,12.33,14.23,12.41,14.18Z"/><path class="cls-11" d="M13,13.18a.37.37,0,0,0-.38-.19.21.21,0,0,1-.28,0,.67.67,0,0,1,0-.37.17.17,0,0,1,.1,0l.16,0a.47.47,0,0,1,.25.11.23.23,0,0,0,.16,0,.14.14,0,0,1,.11,0,.46.46,0,0,1-.06.45Z"/><path class="cls-12" d="M11.66,10.91V11c-.08.1-.23,0-.3.09a.11.11,0,0,1-.08,0c-.08-.08-.08,0-.13.06h-.52c0-.18.06-.3.29-.39a.17.17,0,0,1,.12,0,.45.45,0,0,0,.39,0h.07C11.55,10.85,11.65,10.82,11.66,10.91Z"/><path class="cls-13" d="M11,14.34a1.51,1.51,0,0,1,.76,0,.75.75,0,0,1,0,.33c-.06,0-.13.08-.2,0a.17.17,0,0,1-.06-.06s0-.07-.06-.09a.12.12,0,0,0-.1,0,.12.12,0,0,0-.12,0,.43.43,0,0,0-.09.1s-.06.09-.11,0a.27.27,0,0,1,0-.13C11,14.51,11,14.42,11,14.34Z"/><path class="cls-14" d="M13.1,13.26a1.94,1.94,0,0,0,.07-.42s0,0,.05,0a.66.66,0,0,1,.12.27c.05,0,0-.09.08-.12a.23.23,0,0,0,.06-.16c0-.1.11-.19,0-.3s-.07-.12,0-.18a.13.13,0,0,1,.13.06V13a1,1,0,0,0,0,.24s.05.07,0,.12a3.27,3.27,0,0,1-.54,0Z"/><path class="cls-15" d="M13,8,12.7,8c-.08,0-.17,0-.24,0h-.32s-.06,0-.09,0a.72.72,0,0,1,1.07,0S13.05,8,13,8Z"/><path class="cls-16" d="M12.71,10.84h0c.1,0,.17.07.27.07a.22.22,0,0,1,.17.05c0,.1-.12.12-.2.17h-.64c-.09,0-.19,0-.27-.08a.26.26,0,0,1-.11-.16.2.2,0,0,1,.15-.05h.15l.14,0a1.11,1.11,0,0,0,.26,0Z"/><path class="cls-17" d="M13.53,12.35c-.07.06,0,.11,0,.16s0,.13-.07.12l-.16-.05a.23.23,0,0,1-.07-.07.31.31,0,0,1,0-.23.68.68,0,0,0,.08-.24.86.86,0,0,1,.14-.13c.06,0,.09,0,.12.07a.48.48,0,0,1,0,.29C13.63,12.34,13.57,12.33,13.53,12.35Z"/><path class="cls-18" d="M11,13.11c.07.1,0,.19,0,.27s0,.22,0,.32l0,.08s-.07.07-.13.05l-.09-.68c.07-.08.16-.05.25-.06Z"/><path class="cls-19" d="M12.34,11.57c.14-.16.33-.06.49-.09l.05,0c-.08.15.07.31,0,.47l0,0,0-.09,0-.06a.3.3,0,0,0-.08-.08c-.1-.05-.2.08-.3,0S12.3,11.64,12.34,11.57Z"/><path class="cls-17" d="M13.1,14.49l.54,0v.23s0,0-.07,0a.16.16,0,0,0-.12,0,.2.2,0,0,1-.13,0c-.05,0,0-.11-.06-.07l-.07,0a.13.13,0,0,1-.1,0Z"/><path class="cls-20" d="M13.3,12.27l-.05.24a.34.34,0,0,1,0,.1.76.76,0,0,0,0,.15s0,.05,0,.06l0,0-.12,0a2.67,2.67,0,0,0,0-.63s.06,0,.06.05v0s0-.09,0-.14a.12.12,0,0,1,0-.08.31.31,0,0,1,.08-.11c.06,0,.14-.14.17,0a.93.93,0,0,1-.05.1A.34.34,0,0,1,13.3,12.27Z"/><path class="cls-21" d="M10.87,7.82c.05,0,.08,0,.12,0s.08,0,.12,0,0,.08,0,.12-.1,0-.16,0h-.1c-.1,0-.07.11-.08.17a.63.63,0,0,1-.11.12h0A1.59,1.59,0,0,1,10.51,8c0-.11.06-.16.17-.11A.31.31,0,0,0,10.87,7.82Z"/><path class="cls-22" d="M10.87,8.82a1.18,1.18,0,0,1-.31.08,1.35,1.35,0,0,1,0-.4.3.3,0,0,1,.18-.06h0c.08,0,.09.08.12.14s0,.06,0,.09a.19.19,0,0,1,0,.08A.12.12,0,0,1,10.87,8.82Z"/><path class="cls-14" d="M11.51,12.71a.1.1,0,0,1,0-.16,1.1,1.1,0,0,1,.26-.15c.11,0,0-.12.08-.14a.13.13,0,0,1,.09,0s.06,0,.09,0a.86.86,0,0,1,0,.28c0,.08-.12.08-.18.12s-.07.06-.12.07A.15.15,0,0,1,11.51,12.71Z"/><path class="cls-23" d="M10.68,12.63a.69.69,0,0,1,0-.32s.1,0,.15,0,.06.07.11.1.1,0,.14,0a.07.07,0,0,1,0,0s0,.05,0,.05,0,.07,0,.1a1.66,1.66,0,0,1,0,.22s0,0,0,0-.12,0-.15-.11A.42.42,0,0,0,10.68,12.63Z"/><path class="cls-24" d="M10.87,8.82V8.74c0-.05.11,0,.16-.06a.05.05,0,0,1,.07,0v.07c0,.06,0,.12,0,.17s-.05.21,0,.32a.11.11,0,0,1-.06.14c-.08,0-.09-.05-.11-.11A2.6,2.6,0,0,0,10.87,8.82Z"/><path class="cls-25" d="M13.37,12c0-.11-.08,0-.12,0a.12.12,0,0,1,0-.1c0-.09.08-.16,0-.26a.11.11,0,0,1,.07-.11h0c0,.14.21.12.27.23s0,.19,0,.27-.06-.06-.12-.06S13.42,12,13.37,12Z"/><path class="cls-26" d="M10.56,10.32c.13,0,.26-.09.39,0a.13.13,0,0,1,0,.14c-.09.09-.22.1-.3.19s0,.11,0,.16a.05.05,0,0,1,0,0c-.09,0-.11,0-.11-.12Z"/><path class="cls-27" d="M11.51,14.65l0,0a.12.12,0,0,1,0,.08c-.05.13-.17.08-.26.12a.87.87,0,0,1-.28,0c0-.05-.09-.1,0-.14l.07-.08s.1,0,.12-.06a.12.12,0,0,1,.11,0,.09.09,0,0,1,.07,0S11.48,14.63,11.51,14.65Z"/><path class="cls-28" d="M11.7,12.71l.08-.09c.08,0,.18,0,.19.09s0,.14,0,.2a.1.1,0,0,1-.07,0c-.07,0-.11,0-.16,0h-.05c-.05-.05-.07,0-.08,0a.14.14,0,0,1-.15,0c0-.07,0-.13,0-.19S11.64,12.78,11.7,12.71Z"/><path class="cls-29" d="M11.07,9.37s0-.06,0-.08c-.11-.18.05-.35,0-.52a8.13,8.13,0,0,1,0,1.1.72.72,0,0,1,0,.46s0,0,0,0S11,10,11,9.81,11,9.51,11.07,9.37Z"/><path class="cls-30" d="M11,11.52s0,0,0,0a.43.43,0,0,1,0,.25.1.1,0,0,1-.05.06.42.42,0,0,0-.18.11.13.13,0,0,1-.12-.05.19.19,0,0,1,0-.18.38.38,0,0,0,0-.18.06.06,0,0,1,.05-.06C10.82,11.51,10.91,11.48,11,11.52Z"/><path class="cls-31" d="M13.17,11H13a.17.17,0,0,1-.05-.15s.11,0,.11-.06-.07-.05-.11-.07l0,0a.06.06,0,0,1,0-.06.17.17,0,0,1,.11-.09.27.27,0,0,1,.26.07A.78.78,0,0,1,13.17,11Z"/><path class="cls-32" d="M11.66,11.52a.46.46,0,0,1,.36,0c.14,0,.07.12.05.2s-.08.05-.12.07h0l-.15-.07,0,0-.05-.05,0,0S11.64,11.53,11.66,11.52Z"/><path class="cls-33" d="M12.81,13.9h.08v.4s0,.12,0,.17-.1,0-.15,0,0-.11,0-.15,0,0,0,0,0,0,0-.08a1.52,1.52,0,0,1,0-.21A.14.14,0,0,1,12.81,13.9Z"/><path class="cls-34" d="M10.87,8.65V8.58a1.8,1.8,0,0,1,0-.22c0-.07.06-.08.12-.07a.21.21,0,0,1,.11,0c.08.09,0,.19,0,.29a.17.17,0,0,1-.16.07A.1.1,0,0,1,10.87,8.65Z"/><path class="cls-35" d="M11.78,12.43a.65.65,0,0,1-.28.12l0-.28s.09-.07.11-.13a.18.18,0,0,1,.07-.05.11.11,0,0,1,.07,0l0,0s0,.05,0,.07a.07.07,0,0,1,0,0,.09.09,0,0,0,0,.11S11.8,12.42,11.78,12.43Z"/><path class="cls-36" d="M10.67,10.85v0c.06-.05.13,0,.19-.05h.05a.11.11,0,0,1,0,.09.45.45,0,0,0-.32.36C10.51,11.08,10.53,11,10.67,10.85Z"/><path class="cls-37" d="M11.9,11.76h0a.08.08,0,0,1,.08,0,.31.31,0,0,1,0,.25.16.16,0,0,1-.13,0c-.06-.08-.16,0-.22-.11a.07.07,0,0,1,0-.05C11.74,11.83,11.79,11.74,11.9,11.76Z"/><path class="cls-38" d="M13.25,10.56l-.28,0s-.05,0-.07,0a.41.41,0,0,1-.11-.12s0-.07,0-.11h.08c.14,0,.3,0,.39.14Z"/><path class="cls-39" d="M12.88,12.11v.09a.27.27,0,0,1-.07.08l-.27.12c-.07,0-.13.09-.21,0v-.08c0-.1.13-.13.22-.18l0,0,.2-.06A.08.08,0,0,1,12.88,12.11Z"/><path class="cls-40" d="M11,11.8a.7.7,0,0,1,.05-.25s.1-.07.11,0l0,.3c-.05.08-.1.06-.16,0S11,11.82,11,11.8Z"/><path class="cls-41" d="M13.64,11.71c-.1-.07-.31,0-.27-.23C13.65,11.47,13.65,11.47,13.64,11.71Z"/><path class="cls-42" d="M10.79,12.35l-.15,0c0-.06-.05-.12,0-.19a0,0,0,0,1,.05,0,.22.22,0,0,0,.16,0,.11.11,0,0,1,.08,0l.07,0,.07,0a0,0,0,0,1,0,.05.26.26,0,0,1-.12.09A.2.2,0,0,1,10.79,12.35Z"/><path class="cls-43" d="M10.68,12.63c.12,0,.12.09.15.15s0,.12.12.13A.08.08,0,0,1,11,13c-.09.1-.17,0-.25,0A.71.71,0,0,1,10.68,12.63Z"/><path class="cls-44" d="M11,12.67c-.1-.08,0-.1,0-.16s.08,0,.12,0l0,0a.59.59,0,0,1,0,.23.17.17,0,0,1-.2,0A.08.08,0,0,1,11,12.67Z"/><path class="cls-45" d="M13.24,9.17h-.11s0-.06,0-.05-.16.06-.24,0l0-.05c.05-.1.19-.09.25-.17s.08-.06.13,0S13.24,9.08,13.24,9.17Z"/><path class="cls-46" d="M12.1,9.41c.06.06,0,.13.05.2s-.07.06-.12.05a.27.27,0,0,1-.12-.09v-.2a.07.07,0,0,1,.07,0A.23.23,0,0,1,12.1,9.41Z"/><path class="cls-47" d="M12.93,10.09c0-.27.19-.14.31-.15s0,.08,0,.11l0,0s0,.05-.07.06l-.14,0Z"/><path class="cls-48" d="M12.85,13.82c-.12,0-.25.08-.36-.05.11-.16.26,0,.4,0Z"/><path class="cls-49" d="M12,9.64l.14,0a1.26,1.26,0,0,1-.24.44V9.84C12,9.78,11.91,9.67,12,9.64Z"/><path class="cls-50" d="M11.43,10.81a.28.28,0,0,1-.4,0s0-.06,0-.09a.11.11,0,0,1,.11,0C11.16,10.9,11.34,10.76,11.43,10.81Z"/><path class="cls-51" d="M12.34,12.23c0-.12-.06-.24,0-.36a.08.08,0,0,1,0,0h.05c.09.06,0,.17.09.24a.17.17,0,0,1,0,.1C12.47,12.23,12.42,12.28,12.34,12.23Z"/><path class="cls-52" d="M13.25,10.44c-.12-.11-.28,0-.4-.11a.1.1,0,0,1,0-.07l.08,0h.09c.06,0,.14,0,.19,0Z"/><path class="cls-53" d="M12.34,12.43l.2-.08s.08,0,.09.05a.1.1,0,0,1,0,.09.24.24,0,0,1-.25.1C12.31,12.55,12.34,12.49,12.34,12.43Z"/><path class="cls-54" d="M13.25,10.29c-.07,0-.13,0-.2,0a.17.17,0,0,1-.1-.14.08.08,0,0,1,0-.05.23.23,0,0,1,.16,0s0,0,.08,0A.16.16,0,0,1,13.25,10.29Z"/><path class="cls-55" d="M11.14,10.68l-.11,0,0,0a.22.22,0,0,1,0-.14c0-.08,0-.16,0-.23l.08,0,0,0Z"/><path class="cls-15" d="M12.89,12.78l-.27-.08s0-.07.06-.1l.06,0s.1-.05.15,0Z"/><path class="cls-56" d="M13.17,8.58l.07.09a.17.17,0,0,1,0,.14.13.13,0,0,1-.18.08l0,0a.09.09,0,0,1,0,0,.13.13,0,0,1,0-.06A.46.46,0,0,1,13.17,8.58Z"/><path class="cls-57" d="M11.27,13c-.07,0-.14,0-.2,0S11,13,11,13s.15-.16.28-.09Z"/><path class="cls-58" d="M11.26,12.86c-.11,0-.18.07-.27.09a0,0,0,0,1,0,0v0h0c.05-.05,0-.12,0-.16l.2,0A.08.08,0,0,1,11.26,12.86Z"/><path class="cls-59" d="M10.9,12.31l.13-.08s.08-.09.15,0v.15a.14.14,0,0,1-.13.08A.2.2,0,0,1,10.9,12.31Z"/><path class="cls-60" d="M12.34,13h.28c.05.13-.07.11-.12.16s-.11,0-.16-.05Z"/><path class="cls-61" d="M11,14.74s0,.1,0,.14-.08-.11-.08-.17,0-.25,0-.37H11c0,.08,0,.19,0,.27Z"/><path class="cls-62" d="M11,13h0a.07.07,0,0,0,.08.08.09.09,0,0,1,0,.08h0a.31.31,0,0,1-.24-.08.06.06,0,0,1,0-.08C10.8,12.89,10.87,13,11,13Z"/><path class="cls-63" d="M11.44,13l.15,0v0a.08.08,0,0,1,0,.05.09.09,0,0,1,0,.06c0,.1-.09.1-.16.11Z"/><path class="cls-64" d="M10.52,7.22l-.31,0a.59.59,0,0,1-.29-.07,4.09,4.09,0,0,1,.6.07v0Z"/><path class="cls-65" d="M10.62,12.12h0l0-.17,0,0,.12,0a.06.06,0,0,1,.07,0,.05.05,0,0,1,0,.05.19.19,0,0,1-.07.11A.18.18,0,0,1,10.62,12.12Z"/><path class="cls-64" d="M14.24,7.59a3.44,3.44,0,0,1,.56.09C14.61,7.64,14.42,7.7,14.24,7.59Z"/><path class="cls-66" d="M11.31,14.89s0-.09,0-.08.15,0,.21,0a.34.34,0,0,1,.2,0c0,.11-.09.07-.15.07Z"/><path class="cls-67" d="M13.57,14.78h.08c0,.07,0,.12-.09.12a1.23,1.23,0,0,1-.43,0l0,0,.08,0h.1l.11,0A.11.11,0,0,0,13.57,14.78Z"/><path class="cls-68" d="M11.28,11.12h.06c.2-.08.26-.07.28.07h-.34S11.25,11.14,11.28,11.12Z"/><path class="cls-69" d="M11.62,11.19c0-.17-.19,0-.28-.07.06-.21.22,0,.32-.08S11.69,11.15,11.62,11.19Z"/><path class="cls-70" d="M11.92,13.23c-.1,0-.23,0-.3-.09a.32.32,0,0,1,.31,0Z"/><path class="cls-71" d="M13.53,7.51c.18.06.38,0,.55.11l-.55-.08s0,0,0,0Z"/><path class="cls-72" d="M10.72,11.52v.08a.14.14,0,0,1-.08.09.06.06,0,0,1-.07,0c-.05-.14,0-.23.15-.19,0,0,0,0,0,0Z"/><path class="cls-73" d="M12.42,7.39l.59.08s0,0,0,0h0c-.19,0-.4,0-.59-.08l0,0Z"/><path class="cls-74" d="M11.9,12h.15a.09.09,0,0,1,0,.11.12.12,0,0,1-.08,0,.19.19,0,0,1-.16,0h0C11.73,12,11.85,12.06,11.9,12Z"/><path class="cls-75" d="M13.09,12v-.36c.05-.07.09-.06.14,0a.32.32,0,0,1,0,.19s0,.05,0,.08S13.16,12,13.09,12Z"/><path class="cls-76" d="M11.07,12.39l.12,0,0,.16s-.05,0-.06,0l-.12,0v-.07h0S11.05,12.41,11.07,12.39Z"/><path class="cls-77" d="M12.05,7.93l.09,0c.12.17-.07.11-.11.15s0,0,0,0S12,8,12.05,7.93Z"/><path class="cls-78" d="M11.93,13.1c-.1,0-.2.08-.31,0v0l.06,0,.06,0,0,0a.17.17,0,0,1,.15,0Z"/><path class="cls-79" d="M10.75,13c.09,0,.16.05.24.08-.08.07-.18,0-.26,0Z"/><path class="cls-80" d="M10.56,11.68h.07s.06,0,.08.08-.09.08-.08.15l0,0C10.59,11.86,10.54,11.77,10.56,11.68Z"/><path class="cls-81" d="M12.42,11.24c-.08,0-.18,0-.2-.12l0,0a.39.39,0,0,1,.18,0,.08.08,0,0,1,0,0S12.48,11.25,12.42,11.24Z"/><path class="cls-82" d="M12.35,14.85h.48a0,0,0,0,1,.06,0A.77.77,0,0,1,12.35,14.85Z"/><path class="cls-83" d="M10.91,8l.16,0v0s0,.07,0,.09a.12.12,0,0,1-.08,0h-.05l-.06-.06A.09.09,0,0,1,10.91,8Z"/><path class="cls-84" d="M12.82,12.25l.07-.05a.36.36,0,0,1,0,.23c0,.1-.06,0-.1,0a.07.07,0,0,1,0-.06C12.72,12.32,12.8,12.31,12.82,12.25Z"/><path class="cls-85" d="M11.7,12.71c0,.14-.16.07-.23.12s0-.08,0-.12Z"/><path class="cls-86" d="M10.91,14a.26.26,0,0,1,0,.28.42.42,0,0,1-.07-.24S10.87,14,10.91,14Z"/><path class="cls-87" d="M11.74,14.82a.2.2,0,0,1-.2,0v-.09c.06.07.13,0,.2,0Z"/><path class="cls-88" d="M12,9.64l-.1.2V9.57S12,9.57,12,9.64Z"/><path class="cls-89" d="M11,8.14H11c.07,0,0,.08,0,.12v.07h-.13C11,8.27,10.85,8.2,11,8.14Z"/><path class="cls-90" d="M11.58,11.87v-.15s0-.07.06-.09a.07.07,0,0,1,.06,0s0,0,0,0a.44.44,0,0,1,0,.16.43.43,0,0,1,0,.07A.07.07,0,0,1,11.58,11.87Z"/><path class="cls-91" d="M11.28,11.12v.07h-.13a.94.94,0,0,1,.06-.15s0-.06.07,0S11.28,11.08,11.28,11.12Z"/><path class="cls-92" d="M11.92,10.44c.16-.07.09.06.11.12s-.06.08-.11,0Z"/><path class="cls-93" d="M11.92,10.6l.11,0c.07,0,.07.06.07.12h-.19Z"/><path class="cls-94" d="M11,11.87a.11.11,0,0,0,.15,0V12A.22.22,0,0,1,11,12,.08.08,0,0,1,10.9,12S10.92,11.85,11,11.87Z"/><path class="cls-85" d="M13.21,11.64a.09.09,0,0,0-.12,0c0-.13,0-.2.16-.16s0,.08,0,.12Z"/><path class="cls-95" d="M11.7,7.34a.66.66,0,0,1-.38-.06c.15,0,.26,0,.38,0l0,0Z"/><path class="cls-96" d="M11.9,8.54l.11,0s.07,0,.06.05,0,.07,0,.08,0-.07-.05-.07h-.1Z"/><path class="cls-97" d="M12.34,12.23a.21.21,0,0,0,.16-.08.07.07,0,0,1,.07,0v0l-.24.16Z"/><path class="cls-98" d="M11.18,12.2l-.15,0v0c0-.08,0-.12.07-.17s0,0,.05,0A.22.22,0,0,1,11.18,12.2Z"/><path class="cls-64" d="M10.52,7.22v0a.82.82,0,0,1,.35,0s0,0,0,0h0Z"/><path class="cls-95" d="M10.87,7.26v0a.46.46,0,0,1,.35.07Z"/><path class="cls-99" d="M11.7,7.34v0l.36,0s0,0,0,0h0A.74.74,0,0,1,11.7,7.34Z"/><path class="cls-64" d="M12.06,7.38v0l.36,0v0A.74.74,0,0,1,12.06,7.38Z"/><path class="cls-100" d="M12.89,13.31s-.12,0-.1-.06.12-.05.19-.06S12.89,13.24,12.89,13.31Z"/><path class="cls-101" d="M11.58,11.87l.08,0s0,.05,0,.08l0,0s-.06.07-.11,0S11.54,11.93,11.58,11.87Z"/><path class="cls-102" d="M12.25,11.12h0c-.07,0-.13,0-.16-.08s.19,0,.28,0S12.28,11.09,12.25,11.12Z"/><path class="cls-103" d="M12.78,12.43s.05.05.08,0,0,.08,0,.12l-.15,0s0,0,0-.07A.16.16,0,0,1,12.78,12.43Z"/><path class="cls-104" d="M12.85,11.21s-.13,0-.2,0l0,0v0a.05.05,0,0,1,0,0c.08,0,.16,0,.23,0S12.87,11.19,12.85,11.21Z"/><path class="cls-105" d="M12.35,11.82l0,0a.44.44,0,0,1,0-.3l0,.18S12.38,11.81,12.35,11.82Z"/><path class="cls-106" d="M11.55,12.07l.11-.08a.1.1,0,0,1,.05.12l-.05.05s-.08.1-.12,0Z"/><path class="cls-107" d="M11.94,13h-.2v0a.05.05,0,0,1,0,0l0,0a.15.15,0,0,1,.07,0H12Z"/><path class="cls-108" d="M11.54,12.15s.09,0,.12,0-.06.11-.14.11A.13.13,0,0,1,11.54,12.15Z"/><path class="cls-109" d="M12.37,12.59l.24-.12,0,0a.08.08,0,0,1,0,.08s-.11,0-.16.09l-.08,0Z"/><path class="cls-110" d="M13.09,12c.05,0,0-.08,0-.12s.06.09,0,.15v.08s0,.07-.08,0Z"/><path class="cls-111" d="M12,11.79a.08.08,0,0,1-.08,0c0-.07,0-.16.13-.07S12,11.76,12,11.79Z"/><path class="cls-112" d="M12.34,13.1c.07,0,.11,0,.16.05s0,.09-.05.11a1.05,1.05,0,0,0-.11-.07Z"/><path class="cls-113" d="M11.07,8.26l0-.12s0-.07.05-.08A.13.13,0,0,1,11.07,8.26Z"/><path class="cls-114" d="M12,12.71c0-.09-.13-.05-.19-.09l.2-.07Z"/><path class="cls-115" d="M12.88,12.11h-.07s-.09,0-.12,0a.06.06,0,0,1,0-.07s.08-.08.14,0a.06.06,0,0,0,0,0Z"/><path class="cls-116" d="M13.05,8.86c.07.05.11,0,.17,0s0,.07,0,.1l-.12,0C13,8.94,13,8.9,13.05,8.86Z"/><path class="cls-117" d="M11.67,11.64l-.08.08c0-.08,0-.17.07-.2v.08a0,0,0,0,1,0,0Z"/><path class="cls-118" d="M10.91,14l-.07,0V13.9s.05-.08.11,0S11,14,10.91,14Z"/><path class="cls-119" d="M12,8.1h0c0,.06.09.08.06.16s-.09-.06-.15,0Z"/><path class="cls-120" d="M11.66,10.91c0-.08-.15,0-.16-.1S11.68,10.78,11.66,10.91Z"/><path class="cls-121" d="M13,8l.11,0,.05.09C13.09,8.09,13,8.08,13,8Z"/><path class="cls-122" d="M12,9.38h-.07V9.29c.05,0,.11,0,.15,0S12,9.39,12,9.38Z"/><path class="cls-123" d="M13.61,13.23a.21.21,0,0,1,0-.24C13.64,13.07,13.68,13.15,13.61,13.23Z"/><path class="cls-124" d="M13.18,14.85h0c-.05,0,0-.08,0-.12h.11S13.22,14.82,13.18,14.85Z"/><path class="cls-125" d="M11,13.86l-.11,0,0-.07s.06-.1.13-.05Z"/><path class="cls-126" d="M12.1,10.87H12c0-.05,0-.08,0-.12h0l0,0S12.11,10.83,12.1,10.87Z"/><path class="cls-127" d="M11.15,12h0a.14.14,0,0,1-.08.07l0,0A.08.08,0,0,1,11,12s.1,0,.15,0Z"/><path class="cls-128" d="M10.72,11.52a0,0,0,0,1,0,0c.09,0,.19,0,.28,0Z"/><path class="cls-129" d="M12.42,11.24l0-.08s.09,0,.12,0a.06.06,0,0,1,0,.06C12.53,11.25,12.47,11.31,12.42,11.24Z"/><path class="cls-130" d="M12.85,11.21v-.05c0-.05,0-.06.05-.07l.07,0C13,11.21,12.9,11.2,12.85,11.21Z"/><path class="cls-131" d="M10.57,8.33h0c.09,0,.13.07,0,.14a.1.1,0,0,1-.09,0C10.52,8.41,10.57,8.38,10.57,8.33Z"/><path class="cls-132" d="M13.33,7.54s-.09,0-.12,0,0,0,0,0a0,0,0,0,1,0,0s.09,0,.12,0,0,0,0,0Z"/><path class="cls-133" d="M11.11,7.9S11,8,11,7.87,11.09,7.8,11.11,7.9Z"/><path class="cls-134" d="M12.41,14.18l-.06.2v-.2Z"/><path class="cls-135" d="M13.21,11.6l0-.12h.08l0,.11A.05.05,0,0,1,13.21,11.6Z"/><path class="cls-136" d="M11.94,12.15H12v.12a.09.09,0,0,1-.08,0A.06.06,0,0,1,11.94,12.15Z"/><path class="cls-137" d="M13.53,12.35l.11-.08v.12Z"/><path class="cls-138" d="M12.34,13.19c.05,0,.12,0,.11.07h-.11Z"/><path class="cls-139" d="M13.09,12.15l.08,0v.17l-.08-.09Z"/><path class="cls-140" d="M12.89,14.85h-.06c0-.06,0-.11.06-.12Z"/><path class="cls-141" d="M12.85,14.45s0-.11,0-.15v.2h0a0,0,0,0,1,0,0S12.84,14.45,12.85,14.45Z"/><path class="cls-95" d="M13.33,7.54v0h.2v0Z"/><path class="cls-142" d="M11,8.66l.16,0V8.7H11S11,8.73,11,8.66Z"/><path class="cls-95" d="M13.21,7.47v0H13v0Z"/><path class="cls-143" d="M10.54,8.46h.09a.08.08,0,0,1,.12,0c-.05.06-.13,0-.2,0Z"/><path class="cls-144" d="M10.87,7.82a.14.14,0,0,1-.19,0Z"/><path class="cls-145" d="M13.21,10.13h-.08s0-.07,0-.08l0,0Z"/><path class="cls-146" d="M12.58,11.25V11.2s0,0,0,0h0a0,0,0,0,1,0,0h0S12.59,11.27,12.58,11.25Z"/><path class="cls-147" d="M11.15,12.55l.06,0s0,0,0,0Z"/><path class="cls-148" d="M12.62,11.24v0l0,.05Z"/><path class="cls-146" d="M13.21,10.08l0,0h.05Z"/><path class="cls-149" d="M12.46,9.18v.29c-.09.06-.14.09-.19-.05a2.11,2.11,0,0,0-.18-.33c0-.18.13-.09.22-.08l0,.06C12.37,9.13,12.43,9.13,12.46,9.18Z"/><path class="cls-150" d="M12.3,9c-.06,0-.18-.06-.21.07s0-.06,0-.1.14-.21.29-.21,0,.09,0,.13V9S12.35,9,12.3,9Z"/><path class="cls-151" d="M13.17,8.58c0,.1-.11.13-.16.2a0,0,0,0,1,0,0s0,0,0,0v0c0-.13.07-.24.24-.19Z"/><path class="cls-152" d="M12.7,8.74V8.65c.09,0,.12-.1.2-.11a.24.24,0,0,1,0,.2h0a.08.08,0,0,1-.08.06S12.74,8.77,12.7,8.74Z"/><path class="cls-153" d="M12.94,8.74l0-.2c.09,0,.17-.11.26,0C13,8.51,13,8.67,12.94,8.74Z"/><path class="cls-154" d="M12.42,10.53a.36.36,0,0,1-.16.11.07.07,0,0,1,0-.07c0-.05.11,0,.08-.09s0,0,0-.08h0Z"/><path class="cls-155" d="M12.3,10.4h0c-.07,0-.08-.09-.08-.15h0C12.28,10.28,12.34,10.32,12.3,10.4Z"/><path class="cls-156" d="M12.22,10.25h0c0-.05-.15,0-.19-.15.09,0,.15.09.23.07a.06.06,0,0,1,0,.08Z"/><path class="cls-143" d="M12.35,8.9c-.06,0,0-.08,0-.12h.11v0S12.44,9,12.35,8.9Z"/><path class="cls-157" d="M12.46,8a.33.33,0,0,1,.24,0C12.61,8,12.53,8,12.46,8Z"/><path class="cls-158" d="M13,8.24c.06,0,.08,0,.07.06l0,0s0,0,0-.05Z"/><path class="cls-159" d="M12,9.38s.06,0,.08-.05.06,0,0,.08A.12.12,0,0,1,12,9.38Z"/><path class="cls-160" d="M12.22,10.25v-.08s.09,0,.09,0S12.25,10.24,12.22,10.25Z"/><path class="cls-161" d="M12.3,10.48c0,.11,0,.07-.08.09S12.3,10.54,12.3,10.48Z"/><path class="cls-162" d="M11,13.7c0-.1-.17-.21,0-.32Z"/><path class="cls-163" d="M11,14.61c-.07-.08,0-.18,0-.27h0Z"/><path class="cls-164" d="M11.59,13.11V13s0,0,0,0l0,0a.05.05,0,0,1,0,0h0Z"/><path class="cls-165" d="M13.05,8.86a.09.09,0,0,0,0,.08c0,.15-.16.09-.24.14s0,0,0,0A.14.14,0,0,1,12.7,9V8.9c.05-.05.12,0,.19-.05s0,0,.08,0,0,0,0,0Z"/><path class="cls-166" d="M12.7,9.76c.18,0,.15.17.16.28a.1.1,0,0,1,0,.14.11.11,0,0,1-.12,0Z"/><path class="cls-167" d="M12.38,10.91c-.05,0-.08,0-.12,0s0-.07.06-.09.09,0,.14,0,.17,0,.25,0l0,0C12.59,10.93,12.48,10.85,12.38,10.91Z"/><path class="cls-168" d="M12.93,10.8A.21.21,0,0,1,13,11a.44.44,0,0,1-.24-.11l0,0a.11.11,0,0,1,.12-.06A.07.07,0,0,1,12.93,10.8Z"/><path class="cls-169" d="M12.7,10.17h.12c.09,0,.07.06.07.12l0,0h-.07s-.06,0-.08,0Z"/><path class="cls-170" d="M12.89,10.52H13l-.08.07s0,.05-.05.06a.13.13,0,0,1-.11-.06l0-.12C12.79,10.42,12.84,10.45,12.89,10.52Z"/><path class="cls-171" d="M12.73,10.6l.12,0h0a.08.08,0,0,1,0,.12l-.12,0C12.79,10.73,12.69,10.68,12.73,10.6Z"/><path class="cls-172" d="M12.81,9.09h0v.05c0,.08-.07.12-.08.19a.07.07,0,0,1-.07,0V9.14A.15.15,0,0,1,12.81,9.09Z"/><path class="cls-173" d="M12.46,10.8H12.3a.34.34,0,0,1-.28,0v0C12.17,10.78,12.32,10.73,12.46,10.8Z"/><path class="cls-174" d="M12.89,10.52l-.18,0V10.4a.09.09,0,0,1,.11,0S12.9,10.46,12.89,10.52Z"/><path class="cls-175" d="M12.7,8.74c.05,0,.13-.12.16,0a0,0,0,0,1,0,.06.15.15,0,0,1-.16,0Z"/><path class="cls-176" d="M12.46,9.18c-.06,0-.15,0-.16-.08s.06-.08.12,0S12.46,9.13,12.46,9.18Z"/><path class="cls-177" d="M12.69,8.82h.16s.06,0,0,0-.12,0-.18,0Z"/><path class="cls-178" d="M12.42,9.05l-.12,0V9a.1.1,0,0,0,0-.09.05.05,0,0,1,.08,0Z"/><path class="cls-179" d="M12.81,9.09c0,.05-.07,0-.12.05V9Z"/><path class="cls-180" d="M12.81,10.4H12.7v-.11l.08,0Z"/><path class="cls-181" d="M12.42,8.94h-.08a0,0,0,0,1,0,0c.06,0,0-.1.1-.08S12.47,8.91,12.42,8.94Z"/><path class="cls-182" d="M11.07,9.37a1,1,0,0,1,0,.39c0,.06,0,.07-.07.05A4.67,4.67,0,0,1,11,9.29S11,9.38,11.07,9.37Z"/><path class="cls-183" d="M11,10.33c0,.08.06.15,0,.23s0,0-.07,0l0,0a.06.06,0,0,1,0-.07v-.16Z"/><path class="cls-184" d="M10.84,9.58c0,.05,0,.1-.07.08s0-.05,0-.06Z"/><path class="cls-185" d="M10.67,9.49s.08,0,.09,0-.06,0-.09.08A.06.06,0,0,1,10.67,9.49Z"/><path class="cls-186" d="M10.67,9.49v.08l-.08,0h0S10.61,9.43,10.67,9.49Z"/><path class="cls-139" d="M12.77,9.33c-.07-.11,0-.13.08-.19a.46.46,0,0,1,.28-.06c.12,0,0,.06,0,.09Z"/><path class="cls-187" d="M12.89,10.29l-.07-.12,0-.13.07.05h0v0c-.05.05.07.11,0,.16Z"/><path class="cls-188" d="M12.77,14l0,.24s0,.06-.05.08h0c-.19-.11,0-.22,0-.33A.09.09,0,0,1,12.77,14Z"/><path class="cls-189" d="M12.77,14h-.12s-.09-.05,0-.07.12-.05.17,0Z"/><path class="cls-190" d="M12.85,14.45v.05s-.13.1-.15,0Z"/><path class="cls-191" d="M12.46,12.66c0-.09.08-.09.15-.1a.13.13,0,0,1,.09.07l-.08.07C12.56,12.73,12.52,12.66,12.46,12.66Z"/><path class="cls-55" d="M11,10.72s.05.06,0,.08l-.08,0s0,0,0-.08A.13.13,0,0,1,11,10.7a.1.1,0,0,1,.07,0Z"/><path class="cls-192" d="M11.34,14.57c-.05,0-.07,0-.07.08s-.1,0-.08-.08.09-.06.15,0,0,0,0,0Z"/><path class="cls-66" d="M11.19,14.57a.11.11,0,0,0,.08.08c0,.08-.11,0-.16,0S11.14,14.58,11.19,14.57Z"/><path class="cls-193" d="M11.51,14.65s-.11.07-.12,0a.14.14,0,0,1,.07-.08C11.52,14.56,11.5,14.61,11.51,14.65Z"/><path class="cls-194" d="M11.46,14.54l-.07.08-.05,0v0S11.42,14.55,11.46,14.54Z"/><path class="cls-195" d="M13.2,12.82l0-.07c0-.05,0-.09,0-.14a.08.08,0,0,1,.05,0,.23.23,0,0,1,.18,0c.07,0,0-.05,0-.07s.08.06.05.12a.6.6,0,0,0-.06.19s0,.11-.07.17,0,.16-.12.21Z"/><path class="cls-196" d="M13.45,13a.18.18,0,0,1,.07-.17C13.53,12.89,13.53,13,13.45,13Z"/><path class="cls-197" d="M12.9,11.09l-.05.07a.59.59,0,0,1-.23,0,.06.06,0,0,1,0-.08Z"/><path class="cls-198" d="M12.61,11.08v.12h0l-.12,0h0s0,0,0-.07Z"/><path class="cls-199" d="M12.38,10.91c.09-.11.21,0,.31,0C12.59,11,12.48,10.91,12.38,10.91Z"/><path class="cls-161" d="M12,10.8h.28l0,.06H12.1Z"/><path class="cls-200" d="M12.42,11.09l0,.07-.2,0s.06,0,.09,0Z"/><path class="cls-91" d="M13.37,12a.14.14,0,0,1,.11,0c0,.08,0,.11-.11.12s0,0,0,0Z"/><path class="cls-201" d="M13.34,12h0c0,.08,0,.18-.07.23Z"/><path class="cls-202" d="M13.3,12.56l0,.07s0,0-.07,0a.09.09,0,0,1,0-.08Z"/><path class="cls-203" d="M12.46,12.07c-.17,0,0-.18-.08-.24a.45.45,0,0,1,.31-.12.14.14,0,0,1,.08.09c0,.09-.16.08-.21.16S12.59,12.13,12.46,12.07Z"/><path class="cls-204" d="M12.69,11.71a.74.74,0,0,1-.31.12h0l0-.07C12.48,11.75,12.57,11.57,12.69,11.71Z"/><path class="cls-205" d="M12.53,12c0-.14.17-.11.24-.16l0,0c0,.1,0,.12-.1.15h-.13Z"/><path class="cls-206" d="M12.7,12s.12,0,.11-.12,0,.07,0,.12,0,.09-.12.07S12.68,12,12.7,12Z"/><path class="cls-207" d="M13.57,14.78s0,.06,0,.07-.1,0-.1-.07S13.53,14.71,13.57,14.78Z"/><path class="cls-208" d="M13.34,14.81a.1.1,0,0,1-.09,0c-.05-.06,0-.08,0-.12S13.32,14.79,13.34,14.81Z"/><path class="cls-209" d="M13.29,14.73l0,.12h-.07l0-.11Z"/><path class="cls-210" d="M13.18,12s0-.11,0-.15l0,0a.05.05,0,0,1,.08,0V12Z"/><path class="cls-211" d="M13.21,12.59l.07,0a.2.2,0,0,1-.06.12C13.13,12.7,13.19,12.64,13.21,12.59Z"/><path class="cls-212" d="M10.75,8.46h-.12c0-.06,0-.09,0-.13a.11.11,0,0,1,.12-.11.15.15,0,0,1,.14,0,.22.22,0,0,1,0,.08c0,.08,0,.09-.1.12Z"/><path class="cls-213" d="M10.83,8.26s-.09,0-.12,0S10.66,8,10.8,8a.09.09,0,0,1,0,.07.79.79,0,0,0,0,.13A.09.09,0,0,1,10.83,8.26Z"/><path class="cls-93" d="M10.8,8.06V8h.11l0,.11S10.81,8.09,10.8,8.06Z"/><path class="cls-214" d="M10.75,8.46s.09-.07.09-.13,0,0,0,0l0,.26S10.84,8.45,10.75,8.46Z"/><path class="cls-215" d="M11,8.66l.08,0c0,.1-.1,0-.15,0V8.65Z"/><path class="cls-216" d="M11.94,12.15v.08l-.08,0a.09.09,0,0,1-.07,0v-.09Z"/><path class="cls-217" d="M11.79,12.24a.05.05,0,0,1,.07,0c-.06,0,0,.15-.08.16v0c0-.05,0-.09,0-.13Z"/><path class="cls-218" d="M11.07,12.39l0,0s-.1,0-.15,0-.08-.06-.09-.12.07,0,.11,0S11,12.39,11.07,12.39Z"/><path class="cls-219" d="M11,12.75c0,.05,0,.12,0,.16s0-.17,0-.24Z"/><path class="cls-220" d="M10.88,12.47c0-.06.1,0,.15,0a.08.08,0,0,1,0,0S10.93,12.51,10.88,12.47Z"/><path class="cls-221" d="M13.25,11.83h-.08l0-.2v0h.08C13.38,11.69,13.27,11.76,13.25,11.83Z"/><path class="cls-222" d="M11,10.48v.09s-.15.07-.13.17-.15,0-.19-.1A.36.36,0,0,1,11,10.48Z"/><path class="cls-223" d="M10.63,10.64c.07,0,.12.1.2.08s0,0,0,0-.13,0-.2,0S10.54,10.72,10.63,10.64Z"/><path class="cls-224" d="M11.86,12.91a.15.15,0,0,1-.08.08s-.07,0-.08-.05S11.77,12.76,11.86,12.91Z"/><path class="cls-225" d="M11.59,13c0-.07,0-.05.08,0a.09.09,0,0,1,0,.05.08.08,0,0,1-.08,0Z"/><path class="cls-226" d="M11.67,13s0,0,0,0h0s.06,0,.08.05h0s0,0-.06,0Z"/><path class="cls-227" d="M11,11.87l-.08.08s-.05,0-.08,0h0c-.07-.09.05-.07.07-.1l0,0A.07.07,0,0,1,11,11.87Z"/><path class="cls-228" d="M10.71,11.76l-.08-.08.08-.08C10.79,11.65,10.7,11.7,10.71,11.76Z"/><path class="cls-177" d="M10.91,11.84s-.08,0-.07.1h-.09C10.76,11.85,10.83,11.83,10.91,11.84Z"/><path class="cls-229" d="M12.89,10.76v-.12H13c.09,0,.17,0,.15.12s-.11,0-.17,0Z"/><path class="cls-230" d="M12.89,10.64h0l0,0Z"/><path class="cls-231" d="M11.66,11.84l.05-.16s0,0,0,0,.12,0,.15.09l-.19.15S11.69,11.85,11.66,11.84Z"/><path class="cls-232" d="M11.75,11.67h0v-.06h0Z"/><path class="cls-233" d="M11.67,11.64v0h0s0,0,0,0,0,0,0,0h0Z"/><path class="cls-234" d="M11.7,11.63v0l0,0Z"/><path class="cls-235" d="M12.69,14.3l.05-.08s.06,0,.06,0S12.75,14.29,12.69,14.3Z"/><path class="cls-236" d="M10.88,8.32h0V8.18c0-.07,0-.06.08,0h0c-.07.06.07.14,0,.2Z"/><path class="cls-237" d="M11.71,12.11,11.66,12h0s0,0,.05,0,.16,0,.19.08-.12,0-.12.12Z"/><path class="cls-33" d="M11.78,12.27v.13C11.73,12.35,11.65,12.31,11.78,12.27Z"/><path class="cls-238" d="M10.87,10.76l0,0c-.08-.14,0-.14.12-.15h0a.12.12,0,0,1,0,.16l0,0h0Z"/><path class="cls-239" d="M11.71,12l-.05,0v-.15l.05.07Z"/><path class="cls-226" d="M12.82,12.25c.06.09-.07.09-.08.14a.08.08,0,0,1-.12,0,.07.07,0,0,1-.08,0Z"/><path class="cls-240" d="M12.69,12.07c.05,0,.1,0,.12,0s-.13,0-.19.07l-.06,0a.07.07,0,0,1,0-.06A.1.1,0,0,1,12.69,12.07Z"/><path class="cls-241" d="M12.57,12.15l0,0h0S12.56,12.16,12.57,12.15Z"/><path class="cls-242" d="M10.83,12h.08L11,12v.07a.09.09,0,0,1-.08.08h-.07c-.07,0-.07,0-.05-.09Z"/><path class="cls-243" d="M10.79,12.07a.09.09,0,0,0,.05.09c-.09.08-.15,0-.22,0Z"/><path class="cls-244" d="M11,12.07l.08,0c0,.07-.06.1-.08.16H11C10.93,12.11,11,12.11,11,12.07Z"/><path class="cls-245" d="M11,12.07l-.07.11-.05,0,.08-.08Z"/><path class="cls-246" d="M12.57,12.15v0l-.07,0s0,0,0-.08.07,0,0-.05,0-.06,0-.06h.05s.08.07,0,.14Z"/><path class="cls-247" d="M13,10.28s-.17-.11,0-.16l.08.16Z"/><path class="cls-248" d="M12.62,12.39h.12l0,0s0,.07,0,.08-.09,0-.11,0h0Z"/><path class="cls-249" d="M11,10.72v-.16H11v.16Z"/><path class="cls-250" d="M12.62,12.47l.11,0v.08l0,0c-.06,0-.08,0-.09-.07Z"/><path class="cls-251" d="M13,8.85h0a0,0,0,0,1,0,0s0,0,0,0a0,0,0,0,1,0,0Z"/><path class="cls-241" d="M13,8.82h0a0,0,0,0,1,0,0h0Z"/><path class="cls-252" d="M11.58,13h.08l0,0v0h-.08Z"/><path class="cls-253" d="M11.62,13.11v0a.06.06,0,0,1,.05,0s0,0,0,0a0,0,0,0,1,0,0Z"/><path class="cls-254" d="M11.71,13.07h-.05a0,0,0,0,1,0,0h0s.06,0,.08,0h0v0Z"/><path class="cls-255" d="M11.71,13.07h0l0,0A0,0,0,0,1,11.71,13.07Z"/><path class="cls-256" d="M10.91,8.14a.09.09,0,0,0-.08,0s0-.08,0-.12l.07,0Z"/><path class="cls-257" d="M11.74,13h-.08v0h.08Z"/><path class="cls-51" d="M12.62,12.11l0-.14h.12l0,.07,0,0Z"/><path class="cls-258" d="M13,8.78v.08s-.05.12-.09,0l0,0v0l.07,0Z"/><path class="cls-259" d="M11.66,13v0h0v0Z"/></svg>